<?xml version="1.0" encoding="UTF-8"?>
<!DOCTYPE svg PUBLIC "-//W3C//DTD SVG 1.1//EN" "http://www.w3.org/Graphics/SVG/1.1/DTD/svg11.dtd">
<svg xmlns="http://www.w3.org/2000/svg" version="1.1" width="1920px" height="1920px"
    style="shape-rendering:geometricPrecision; text-rendering:geometricPrecision; image-rendering:optimizeQuality; fill-rule:evenodd; clip-rule:evenodd"
    xmlns:xlink="http://www.w3.org/1999/xlink">
    <g>
        <path style="opacity:1" fill="#fefffe"
            d="M 1360.5,502.5 C 1419.57,502.47 1473.9,518.303 1523.5,550C 1547.6,565.656 1569.76,583.823 1590,604.5C 1618.3,636.792 1634.3,674.459 1638,717.5C 1638.99,907.518 1638.65,1097.52 1637,1287.5C 1634.69,1301.16 1627.19,1305.32 1614.5,1300C 1607,1296.42 1600,1292.09 1593.5,1287C 1568.1,1262.93 1540.44,1241.93 1510.5,1224C 1443.62,1186.43 1372.62,1175.76 1297.5,1192C 1271.3,1197.79 1245.63,1205.29 1220.5,1214.5C 1220.33,987.5 1220.5,760.5 1221,533.5C 1265.79,514.911 1312.29,504.578 1360.5,502.5 Z M 1416.5,681.5 C 1423.09,681.918 1429.42,683.418 1435.5,686C 1439.68,689.519 1441.84,694.019 1442,699.5C 1442.67,803.5 1442.67,907.5 1442,1011.5C 1442.64,1018.27 1439.64,1021.61 1433,1021.5C 1427.74,1020.95 1422.57,1019.95 1417.5,1018.5C 1416.5,906.169 1416.17,793.835 1416.5,681.5 Z" />
    </g>
    <g>
        <path style="opacity:1" fill="#fefffe"
            d="M 1164.5,561.5 C 1185.88,560.04 1197.72,570.04 1200,591.5C 1201.64,667.814 1201.97,744.147 1201,820.5C 1198.82,855.364 1183.32,882.53 1154.5,902C 1149,905.585 1143.33,908.919 1137.5,912C 1136.37,916.748 1136.2,921.581 1137,926.5C 1151.13,917.502 1166.3,914.668 1182.5,918C 1191.51,922.839 1197.01,930.339 1199,940.5C 1199.93,945.799 1200.6,951.133 1201,956.5C 1201.67,1025.17 1201.67,1093.83 1201,1162.5C 1199.29,1193.76 1186.12,1218.93 1161.5,1238C 1157.17,1241 1152.83,1244 1148.5,1247C 1125.17,1260 1101.83,1273 1078.5,1286C 1014.33,1325.25 950,1364.25 885.5,1403C 852.701,1422.23 818.701,1439.07 783.5,1453.5C 783.333,1226.5 783.5,999.5 784,772.5C 840.888,746.478 895.722,716.978 948.5,684C 1012.27,642.943 1077.6,604.276 1144.5,568C 1151.12,565.293 1157.79,563.126 1164.5,561.5 Z M 998.5,825.5 C 1003.03,826.203 1005.2,828.869 1005,833.5C 1005.67,873.833 1005.67,914.167 1005,954.5C 1004.71,959.39 1002.87,963.557 999.5,967C 993.224,971.634 986.558,975.467 979.5,978.5C 979.333,931.165 979.5,883.832 980,836.5C 985.862,832.099 992.028,828.432 998.5,825.5 Z M 997.5,1046.5 C 1003.68,1046.2 1006.18,1049.2 1005,1055.5C 1005.67,1086.17 1005.67,1116.83 1005,1147.5C 1004.14,1156.36 999.974,1163.19 992.5,1168C 988.381,1170.73 984.048,1172.89 979.5,1174.5C 979.333,1135.5 979.5,1096.5 980,1057.5C 985.813,1053.68 991.647,1050.02 997.5,1046.5 Z" />
    </g>
    <g>
        <path style="opacity:1" fill="#fefffe"
            d="M 761.5,780.5 C 762.5,780.5 763.5,780.5 764.5,780.5C 764.833,830.838 764.5,881.171 763.5,931.5C 717.334,950.333 669.334,960.333 619.5,961.5C 602.413,961.186 585.413,959.852 568.5,957.5C 568.333,906.832 568.5,856.166 569,805.5C 617.719,813.557 665.885,810.724 713.5,797C 729.987,792.561 745.987,787.061 761.5,780.5 Z" />
    </g>
    <g>
        <path style="opacity:1" fill="#fefffe"
            d="M 763.5,952.5 C 764.666,1101.67 764.833,1251 764,1400.5C 762.328,1442.49 741.495,1469.66 701.5,1482C 609.65,1505.23 524.984,1489.89 447.5,1436C 425.333,1420.82 405.499,1402.99 388,1382.5C 364.397,1352.61 350.73,1318.61 347,1280.5C 346.333,1171.83 346.333,1063.17 347,954.5C 384.127,1002.31 428.627,1041.48 480.5,1072C 500.271,1082.3 520.771,1090.8 542,1097.5C 542.333,1168.5 542.667,1239.5 543,1310.5C 551.259,1313.45 559.759,1315.45 568.5,1316.5C 568.5,1203.83 568.5,1091.17 568.5,978.5C 635.981,987.954 700.981,979.288 763.5,952.5 Z" />
    </g>
</svg>